<?xml version="1.0" encoding="UTF-8"?>
<!DOCTYPE svg PUBLIC "-//W3C//DTD SVG 1.1//EN" "http://www.w3.org/Graphics/SVG/1.1/DTD/svg11.dtd">
<!-- Creator: CorelDRAW X7 -->
<svg xmlns="http://www.w3.org/2000/svg" xml:space="preserve" width="97.5552mm" height="122.743mm" version="1.1" style="shape-rendering:geometricPrecision; text-rendering:geometricPrecision; image-rendering:optimizeQuality; fill-rule:evenodd; clip-rule:evenodd"
viewBox="0 0 1324 1666"
 xmlns:xlink="http://www.w3.org/1999/xlink">
 <defs>
  <style type="text/css">
   <![CDATA[
    .str1 {stroke:#2B2A29;stroke-width:2.71535}
    .str0 {stroke:#2B2A29;stroke-width:2.71535}
    .fil0 {fill:#2B2A29}
    .fil1 {fill:#2B2A29;fill-rule:nonzero}
    .fil4 {fill:#015699;fill-rule:nonzero}
    .fil2 {fill:#015BA2;fill-rule:nonzero}
    .fil3 {fill:#036BBF;fill-rule:nonzero}
   ]]>
  </style>
 </defs>
 <g id="Layer_x0020_1">
  <metadata id="CorelCorpID_0Corel-Layer"/>
  <path class="fil0 str0" d="M1167 879c81,0 148,61 148,136 0,74 -67,140 -148,135 -313,-19 -609,-19 -929,-7 -103,1 -237,-47 -237,-177 0,-92 80,-167 180,-169 29,-102 119,-176 226,-176 108,0 200,77 227,181 44,-36 100,-58 161,-58 118,0 218,83 247,197 27,-37 73,-62 125,-62z"/>
  <path class="fil1" d="M1226 617c2,1 3,1 2,-2l-1 -2 0 0 0 0 0 0 0 0 0 0 0 -1 0 0 -1 -1 0 0 0 0 0 0 0 0 0 0 0 0 0 0 0 0 0 0 0 -1 0 0 0 0 0 0 0 0 0 0 0 0 0 0 0 0 0 0 0 0 0 0 0 0 0 0 0 0 0 0 0 0 0 0 0 -1 0 0 0 0 0 0 0 0 0 0 0 0 0 0c-1,0 -1,-1 -1,-1 -62,-163 -124,-327 -187,-490l0 -1 0 -1 -1 -1 0 0 -3 -8 0 0 0 1 -1 1 -35 42 -1 1c-102,120 -202,243 -303,364 -3,3 -5,5 -5,7l0 0 0 0 0 0 0 0 0 0 0 0 0 0 0 0 0 0 0 0 0 1 0 0 0 0 0 0 0 0c0,0 1,0 1,0l0 0 0 0 0 0c0,0 0,0 0,0l0 0c2,1 4,2 8,2l2 1c169,32 342,59 512,88l14 2 0 0zm-242 -587c41,-45 106,-27 125,25 69,182 139,364 208,546 6,17 10,35 6,53 -7,30 -34,52 -66,53 -23,1 -45,-5 -68,-9 -180,-29 -360,-59 -539,-90 -32,-6 -56,-22 -64,-55 -6,-25 1,-47 17,-67 121,-148 255,-316 381,-456z"/>
  <path class="fil1" d="M1242 191c0,0 1,0 1,0 0,1 -1,1 -1,1 0,0 -1,0 -1,0 1,0 1,-1 1,-1z"/>
  <path class="fil2" d="M856 1295c0,-1 0,-1 0,-1 0,0 1,1 1,1 0,0 0,0 0,1 -1,-1 -1,-1 -1,-1z"/>
  <path class="fil1" d="M983 1c0,-1 0,-1 0,-1 1,0 1,1 1,1 1,0 0,0 0,1 0,-1 -1,-1 -1,-1z"/>
  <path class="fil2" d="M911 1517c-1,0 -1,0 -1,-1 0,0 0,0 0,0 1,0 1,0 1,1 0,0 0,0 0,0z"/>
  <path class="fil3" d="M362 315c0,2 -1,3 -2,3 -1,0 -2,-1 -2,-1 0,-2 1,-3 2,-3 1,0 2,1 2,1z"/>
  <path class="fil3" d="M339 315c-1,0 -1,1 -2,1 0,0 0,-1 0,-1 0,0 1,0 1,-1 0,0 0,1 1,1z"/>
  <path class="fil3" d="M325 338c0,0 1,0 1,-1 0,1 1,1 1,1 0,0 0,1 -1,1 0,0 0,-1 -1,-1z"/>
  <path class="fil1" d="M861 176c-1,2 -1,3 -3,3 1,-1 2,-2 3,-3z"/>
  <path class="fil1" d="M825 219c0,0 -1,1 -1,2 0,-1 1,-2 1,-2z"/>
  <path class="fil1" d="M824 221c-1,0 -1,1 -2,2 1,-1 1,-2 2,-2z"/>
  <path class="fil1" d="M862 174c0,1 -1,2 -2,2 1,0 2,-1 2,-2z"/>
  <path class="fil1" d="M827 217c0,0 -1,1 -1,1 0,0 1,-1 1,-1z"/>
  <path class="fil1" d="M776 279c-1,0 -2,1 -2,2 0,-1 1,-2 2,-2z"/>
  <path class="fil1" d="M1228 615c1,3 0,3 -2,2 0,-1 1,-1 2,-2z"/>
  <path class="fil4" d="M445 1291c0,0 0,-1 0,-1 1,0 1,1 1,1 0,0 0,0 0,1 0,-1 -1,-1 -1,-1z"/>
  <path class="fil1" d="M961 298c0,-17 7,-31 24,-38 16,-7 32,-5 45,7 14,11 18,26 12,43 -13,39 -27,77 -40,116 -3,8 -38,5 -38,-1 -3,-7 -3,-113 -3,-127z"/>
  <path class="fil1" d="M970 529c-20,0 -36,-14 -36,-33 0,-18 15,-33 35,-33 20,0 36,16 36,34 -1,18 -16,32 -35,32z"/>
  <path class="fil0 str1" d="M358 1350c4,36 0,101 -39,131 -47,30 -85,25 -115,-17 -21,-38 -17,-81 13,-129 39,-54 79,-108 118,-161 10,78 17,137 23,176z"/>
  <path class="fil0 str1" d="M992 1350c4,36 -1,101 -40,131 -46,30 -84,25 -114,-17 -21,-38 -17,-81 13,-129 39,-54 79,-108 118,-161 10,78 17,137 23,176z"/>
  <path class="fil0 str1" d="M692 1473c5,46 -1,129 -50,168 -60,38 -108,31 -147,-22 -27,-49 -21,-104 16,-165 51,-70 101,-138 152,-206 12,99 22,174 29,225z"/>
 </g>
</svg>
