<?xml version="1.0" encoding="UTF-8"?>
<!DOCTYPE svg PUBLIC "-//W3C//DTD SVG 1.1//EN" "http://www.w3.org/Graphics/SVG/1.1/DTD/svg11.dtd">
<!-- Creator: CorelDRAW X7 -->
<svg xmlns="http://www.w3.org/2000/svg" xml:space="preserve" width="1372px" height="1399px" version="1.1" style="shape-rendering:geometricPrecision; text-rendering:geometricPrecision; image-rendering:optimizeQuality; fill-rule:evenodd; clip-rule:evenodd"
viewBox="0 0 2679 2732"
 xmlns:xlink="http://www.w3.org/1999/xlink">
 <defs>
  <style type="text/css">
   <![CDATA[
    .fil0 {fill:#2B2A29}
   ]]>
  </style>
 </defs>
 <g id="Layer_x0020_1">
  <metadata id="CorelCorpID_0Corel-Layer"/>
  <g id="_415214800848">
   <path class="fil0" d="M2114 472l-1940 1622c1,3 3,5 4,8 -15,7 -30,15 -43,25 -72,50 -120,133 -120,228 0,153 124,277 277,277 85,0 160,-38 211,-97l0 0c12,-14 22,-29 31,-44 1,1 3,2 4,3l1664 -1939 477 -555 -565 472z"/>
   <path class="fil0" d="M2392 805l-1643 1810c162,75 343,117 534,117 708,0 1282,-575 1282,-1283 0,-235 -63,-454 -173,-644z"/>
   <path class="fil0" d="M78 1890l1846 -1552c-189,-109 -408,-171 -641,-171 -709,0 -1283,574 -1283,1282 0,155 27,304 78,441z"/>
  </g>
 </g>
</svg>
